<svg width="139" height="41" viewBox="0 0 139 41" fill="none" xmlns="http://www.w3.org/2000/svg">
<path d="M88.1127 14.0785V17.2745H79.3414V14.0785H88.1127ZM81.1703 27.7148V13.386C81.1703 12.3325 81.3685 11.4595 81.7651 10.767C82.1616 10.0687 82.7121 9.54782 83.4164 9.20455C84.1207 8.85535 84.9345 8.68075 85.8578 8.68075C86.4615 8.68075 87.0297 8.7281 87.5623 8.8228C88.1009 8.91158 88.5004 8.99148 88.7608 9.0625L88.0684 12.2408C87.9086 12.1875 87.7132 12.1431 87.4824 12.1076C87.2575 12.0721 87.0444 12.0543 86.8432 12.0543C86.3342 12.0543 85.985 12.1668 85.7956 12.3917C85.6062 12.6166 85.5115 12.9244 85.5115 13.315V27.7148H81.1703ZM90.5013 27.7148V14.0785H94.7182V16.5643H94.8603C95.1089 15.6647 95.5143 14.9959 96.0765 14.5579C96.6388 14.114 97.2928 13.892 98.0385 13.892C98.2398 13.892 98.4469 13.9068 98.66 13.9364C98.8731 13.9601 99.0713 13.9986 99.2548 14.0518V17.8249C99.0477 17.7539 98.7754 17.6977 98.4381 17.6562C98.1066 17.6148 97.8107 17.5941 97.5503 17.5941C97.0354 17.5941 96.5707 17.7095 96.1564 17.9403C95.7481 18.1652 95.4255 18.4819 95.1888 18.8903C94.9579 19.2927 94.8425 19.7662 94.8425 20.3107V27.7148H90.5013ZM106.99 27.9723C105.564 27.9723 104.333 27.6912 103.297 27.1289C102.267 26.5607 101.474 25.7528 100.918 24.7053C100.367 23.6518 100.092 22.4 100.092 20.9499C100.092 19.5413 100.37 18.3103 100.926 17.2567C101.483 16.1973 102.267 15.3746 103.279 14.7887C104.291 14.1969 105.484 13.9009 106.857 13.9009C107.827 13.9009 108.715 14.0518 109.52 14.3537C110.325 14.6555 111.021 15.1024 111.606 15.6942C112.192 16.2861 112.648 17.017 112.974 17.8871C113.299 18.7512 113.462 19.7425 113.462 20.8612V21.9442H101.61V19.4229H109.423C109.417 18.9613 109.307 18.55 109.094 18.1889C108.881 17.8279 108.588 17.5468 108.215 17.3455C107.848 17.1384 107.425 17.0348 106.946 17.0348C106.46 17.0348 106.025 17.1443 105.641 17.3633C105.256 17.5763 104.951 17.8693 104.726 18.2422C104.501 18.6091 104.383 19.0264 104.371 19.494V22.0597C104.371 22.616 104.481 23.1043 104.7 23.5245C104.919 23.9388 105.229 24.2614 105.632 24.4922C106.034 24.723 106.514 24.8384 107.07 24.8384C107.455 24.8384 107.804 24.7852 108.117 24.6786C108.431 24.5721 108.7 24.4152 108.925 24.2081C109.15 24.0009 109.319 23.7464 109.431 23.4446L113.418 23.56C113.252 24.4537 112.888 25.232 112.326 25.8949C111.769 26.5518 111.038 27.0638 110.133 27.4308C109.227 27.7918 108.18 27.9723 106.99 27.9723ZM122.353 27.9723C120.927 27.9723 119.696 27.6912 118.66 27.1289C117.63 26.5607 116.837 25.7528 116.281 24.7053C115.731 23.6518 115.455 22.4 115.455 20.9499C115.455 19.5413 115.734 18.3103 116.29 17.2567C116.846 16.1973 117.63 15.3746 118.643 14.7887C119.655 14.1969 120.847 13.9009 122.22 13.9009C123.191 13.9009 124.079 14.0518 124.884 14.3537C125.689 14.6555 126.384 15.1024 126.97 15.6942C127.556 16.2861 128.012 17.017 128.337 17.8871C128.663 18.7512 128.825 19.7425 128.825 20.8612V21.9442H116.974V19.4229H124.786C124.78 18.9613 124.671 18.55 124.458 18.1889C124.244 17.8279 123.951 17.5468 123.579 17.3455C123.212 17.1384 122.788 17.0348 122.309 17.0348C121.824 17.0348 121.389 17.1443 121.004 17.3633C120.619 17.5763 120.315 17.8693 120.09 18.2422C119.865 18.6091 119.746 19.0264 119.735 19.494V22.0597C119.735 22.616 119.844 23.1043 120.063 23.5245C120.282 23.9388 120.593 24.2614 120.995 24.4922C121.398 24.723 121.877 24.8384 122.433 24.8384C122.818 24.8384 123.167 24.7852 123.481 24.6786C123.795 24.5721 124.064 24.4152 124.289 24.2081C124.514 24.0009 124.682 23.7464 124.795 23.4446L128.781 23.56C128.615 24.4537 128.251 25.232 127.689 25.8949C127.133 26.5518 126.402 27.0638 125.496 27.4308C124.591 27.7918 123.543 27.9723 122.353 27.9723Z" fill="white"/>
<path d="M60.4631 7.52682V13.7327H67.3746C68.6093 13.7327 69.6085 13.5036 70.3722 13.0453C71.1486 12.5743 71.5368 11.7468 71.5368 10.5629C71.5368 9.25175 71.0277 8.3861 70.0094 7.96601C69.1311 7.67321 68.011 7.52682 66.6491 7.52682H60.4631ZM60.4631 18.392V25.8964H67.3746C68.6093 25.8964 69.5703 25.7309 70.2576 25.3999C71.505 24.7888 72.1287 23.6177 72.1287 21.8864C72.1287 20.4224 71.5241 19.4167 70.3149 18.8693C69.6403 18.5638 68.692 18.4047 67.4701 18.392H60.4631ZM68.5202 2.63846C71.5941 2.99578 74.4134 3.68869 75.8518 5.6364C76.7173 6.83303 77.15 8.26516 77.15 9.93281C77.15 11.6514 76.7173 13.0326 75.8518 14.0765C75.3681 14.662 74.6553 15.1967 73.7134 15.6804C75.1517 16.2024 76.2336 17.0298 76.9591 18.1628C77.6974 19.2958 78.0665 20.6707 78.0665 22.2874C78.0665 23.955 77.6465 25.4508 76.8064 26.7747C76.2718 27.6531 75.6035 28.3915 74.8017 28.9898C73.8979 29.6772 72.8288 30.1482 71.5941 30.4028C70.3722 30.6574 70.0094 30.7847 67.6037 30.7847C65.1981 30.7847 57.4329 28.9898 54.8499 30.7847C52.2668 32.5797 48.1854 34.6003 44.3773 35.8244C40.5691 37.0485 36.8968 34.7363 38.2569 33.6483C39.6169 32.5602 44.2412 32.2882 48.5935 29.9761C52.9458 27.6639 51.3137 25.3518 47.2334 26.7747C47.2334 26.7747 38.6872 30.7847 36.897 31.3605C35.1067 31.9363 35.015 30.1121 35.015 29.1918C35.015 28.2715 15.6796 35.8244 12.4154 35.8244C8.91221 35.8244 14.4558 31.38 17.8158 30.3887C25.4358 28.1405 39.2571 24.1256 43.0395 23.4477C48.3438 22.497 46.4397 19.5249 41.2714 19.6395C36.103 19.754 25.2557 23.7087 21.6237 24.6743C17.9917 25.6399 17.0397 23.2074 17.9917 22.2874C18.9438 21.3673 19.3517 21.8968 22.48 20.8361C25.6082 19.7755 25.3362 18.392 22.48 18.392C20.2356 18.392 16.7068 19.9012 15.2979 20.5478C14.8884 20.7357 14.4722 20.9143 14.0393 21.0394C12.8926 21.3709 11.9979 21.4713 11.3401 21.3856C8.86582 21.0635 11.6623 17.8976 13.9946 17.011C23.8853 13.251 50.8953 3.08156 54.8499 2.63846C59.7058 2.09436 65.4463 2.28114 68.5202 2.63846Z" fill="white"/>
<rect y="24.5068" width="7.88846" height="3.26419" rx="1.6321" transform="rotate(-18.8951 0 24.5068)" fill="white"/>
<rect x="8.43164" y="27.498" width="7.88846" height="3.26419" rx="1.6321" transform="rotate(-18.8951 8.43164 27.498)" fill="white"/>
<rect x="1.08594" y="37.292" width="7.88846" height="3.26419" rx="1.6321" transform="rotate(-18.8951 1.08594 37.292)" fill="white"/>
</svg>
