<svg width="44" height="33" viewBox="0 0 44 33" fill="none" xmlns="http://www.w3.org/2000/svg">
<path d="M42.3309 0H1.63357C0.74576 0 0 0.710242 0 1.63357V31.322C0 32.2098 0.710247 32.9556 1.63357 32.9556H42.3664C43.2542 32.9556 44 32.2454 44 31.322V1.63357C43.9645 0.745754 43.2542 0 42.3309 0Z" fill="#FFD05B"/>
<path d="M32.1388 9.55286V0H29.8305V9.55286H14.134V0H11.8257V9.55286H0V11.8967H43.9645V9.55286H32.1388Z" fill="#F9B54C"/>
<path d="M0 23.3604H11.8257V32.9133H14.134V23.3604H29.8305V32.9133H32.1388V23.3604H43.9645V21.0166H0V23.3604Z" fill="#F9B54C"/>
</svg>
