<svg width="298" height="181" viewBox="0 0 298 181" fill="none" xmlns="http://www.w3.org/2000/svg">
<rect width="296" height="180.568" rx="17.3148" fill="url(#paint0_linear_13196_90057)"/>
<mask id="mask0_13196_90057" style="mask-type:alpha" maskUnits="userSpaceOnUse" x="1" y="0" width="297" height="181">
<rect x="1.64844" width="296" height="180.568" rx="17.3148" fill="url(#paint1_linear_13196_90057)"/>
</mask>
<g mask="url(#mask0_13196_90057)">
<path d="M262.217 191.315C253.973 21.4658 -143.445 -72.528 -112.937 96.4977L-12.3466 181.421C32.1771 212.478 268.949 330.029 262.217 191.315Z" fill="url(#paint2_linear_13196_90057)" fill-opacity="0.34"/>
</g>
<rect x="2" width="296" height="180.568" rx="17.3148" fill="url(#paint3_linear_13196_90057)"/>
<mask id="mask1_13196_90057" style="mask-type:alpha" maskUnits="userSpaceOnUse" x="3" y="0" width="297" height="181">
<rect x="3.64844" width="296" height="180.568" rx="17.3148" fill="url(#paint4_linear_13196_90057)"/>
</mask>
<g mask="url(#mask1_13196_90057)">
<path d="M264.217 191.315C255.973 21.4658 -141.445 -72.528 -110.937 96.4977L-10.3466 181.421C34.1771 212.478 270.949 330.029 264.217 191.315Z" fill="url(#paint5_linear_13196_90057)" fill-opacity="0.34"/>
</g>
<defs>
<linearGradient id="paint0_linear_13196_90057" x1="277.036" y1="15.6657" x2="7.7086e-07" y2="176.446" gradientUnits="userSpaceOnUse">
<stop stop-color="#2647BD"/>
<stop offset="1" stop-color="#1B2AB1"/>
</linearGradient>
<linearGradient id="paint1_linear_13196_90057" x1="278.685" y1="15.6657" x2="1.64844" y2="176.446" gradientUnits="userSpaceOnUse">
<stop stop-color="#161616"/>
<stop offset="1" stop-color="#242424"/>
</linearGradient>
<linearGradient id="paint2_linear_13196_90057" x1="223.464" y1="84.9545" x2="4.12242" y2="169.85" gradientUnits="userSpaceOnUse">
<stop stop-color="#D5D5D5"/>
<stop offset="0.788762" stop-color="#818181" stop-opacity="0"/>
</linearGradient>
<linearGradient id="paint3_linear_13196_90057" x1="279.036" y1="15.6657" x2="2" y2="176.446" gradientUnits="userSpaceOnUse">
<stop stop-color="#2647BD"/>
<stop offset="1" stop-color="#1B2AB1"/>
</linearGradient>
<linearGradient id="paint4_linear_13196_90057" x1="280.685" y1="15.6657" x2="3.64844" y2="176.446" gradientUnits="userSpaceOnUse">
<stop stop-color="#161616"/>
<stop offset="1" stop-color="#242424"/>
</linearGradient>
<linearGradient id="paint5_linear_13196_90057" x1="225.464" y1="84.9545" x2="6.12242" y2="169.85" gradientUnits="userSpaceOnUse">
<stop stop-color="#D5D5D5"/>
<stop offset="0.788762" stop-color="#818181" stop-opacity="0"/>
</linearGradient>
</defs>
</svg>
