<svg width="24" height="24" viewBox="0 0 24 24" fill="none" xmlns="http://www.w3.org/2000/svg">
<path d="M12.0004 0.398438L0.400391 9.36835H3.30385V23.5986H8.8377V16.6036C8.8377 15.478 9.72756 14.5572 10.8153 14.5572H13.1857C14.2734 14.5572 15.1633 15.478 15.1633 16.6036V23.5986H20.6971V9.36835H23.6003L12.0004 0.398438Z" fill="#A6A6A6"/>
<path d="M20.6964 24H15.1626C14.9418 24 14.7626 23.8208 14.7626 23.6V16.6053C14.7626 15.6973 14.0549 14.9586 13.185 14.9586H10.8146C9.94475 14.9586 9.23675 15.6973 9.23675 16.6053V23.6C9.23675 23.8208 9.05782 24 8.83675 24H3.30344C3.08237 24 2.90344 23.8208 2.90344 23.6V9.76979H0.399979C0.22878 9.76979 0.0767802 9.66099 0.0215803 9.49912C-0.0338862 9.33725 0.0199803 9.15805 0.155447 9.05352L11.7554 0.0836005C11.8994 -0.0278668 12.1007 -0.0278668 12.2447 0.0836005L23.8447 9.05352C23.9799 9.15832 24.0338 9.33725 23.9786 9.49912C23.9231 9.66099 23.7711 9.76979 23.5999 9.76979H21.0964V23.6C21.0964 23.8208 20.9172 24 20.6964 24ZM15.5626 23.2H20.2964V9.36979C20.2964 9.14872 20.4757 8.96978 20.6964 8.96978H22.4287L11.9999 0.905472L1.57118 8.96978H3.30344C3.5245 8.96978 3.70344 9.14872 3.70344 9.36979V23.2H8.43702V16.6053C8.43702 15.2562 9.50368 14.1586 10.8149 14.1586H13.1853C14.4962 14.1586 15.5629 15.2562 15.5629 16.6053L15.5626 23.2Z" fill="#A6A6A6"/>
</svg>
