<svg width="58" height="10" viewBox="0 0 58 10" fill="none" xmlns="http://www.w3.org/2000/svg">
<path d="M0.170898 0.0244141H2.12598L4.39551 5.99219L6.66504 0.0244141H8.62695L5.23633 9H3.55469L0.170898 0.0244141ZM10.8202 0.0244141H12.7479V9H10.8202V0.0244141ZM15.6589 0.0244141H18.6121C19.5099 0.0244141 20.2185 0.261393 20.738 0.735352C21.2621 1.20931 21.5242 1.84961 21.5242 2.65625C21.5242 3.11654 21.4034 3.59505 21.1619 4.0918C20.9249 4.58854 20.4851 4.97819 19.8425 5.26074L22.3513 9H20.1365L17.8123 5.52734H17.5935V9H15.6589V0.0244141ZM17.6072 1.62402V3.96191H18.0242C19.0313 3.96191 19.5349 3.54948 19.5349 2.72461C19.5349 2.38737 19.4028 2.12077 19.1384 1.9248C18.8787 1.72428 18.5164 1.62402 18.0515 1.62402H17.6072ZM24.2028 0.0244141H30.2389V1.93164H28.1813V9H26.2467V1.93164H24.2028V0.0244141ZM32.6509 0.0244141H34.5581V5.51367C34.5581 6.02409 34.6994 6.43424 34.982 6.74414C35.2645 7.05404 35.6359 7.20898 36.0962 7.20898C36.6249 7.20898 37.035 7.05404 37.3267 6.74414C37.6183 6.42969 37.7642 5.98763 37.7642 5.41797V0.0244141H39.6646V5.83496C39.6646 6.34538 39.5324 6.8763 39.2681 7.42773C39.0038 7.97461 38.5959 8.39388 38.0445 8.68555C37.4976 8.97721 36.8846 9.12305 36.2056 9.12305C34.9751 9.12305 34.0751 8.78125 33.5054 8.09766C32.9357 7.40951 32.6509 6.68717 32.6509 5.93066V0.0244141ZM45.4809 0.0244141H46.9779L50.642 9H48.7006L47.9691 7.23633H44.5307L43.8266 9H41.892L45.4809 0.0244141ZM46.2328 2.96387L45.1869 5.60938H47.3129L46.2328 2.96387ZM53.1702 0.0244141H55.0911V7.06543H57.7366V9H53.1702V0.0244141Z" fill="white"/>
</svg>
