<svg width="54" height="18" viewBox="0 0 54 18" fill="none" xmlns="http://www.w3.org/2000/svg">
<path d="M20.3476 0.308276L13.3313 17.0534H8.75358L5.30127 3.68813C5.09137 2.86606 4.91049 2.56449 4.27183 2.21824C3.23123 1.65307 1.51178 1.12364 0 0.793027L0.102721 0.308276H7.4718C7.95335 0.307793 8.41922 0.479535 8.7853 0.7925C9.15139 1.10547 9.39358 1.53904 9.46815 2.01496L11.2926 11.7055L15.7989 0.308276H20.3476ZM38.2857 11.5871C38.3036 7.16627 32.1761 6.92278 32.2185 4.94803C32.2319 4.34712 32.8036 3.70823 34.0541 3.54516C35.5196 3.40592 36.9955 3.66525 38.3259 4.29574L39.0852 0.743881C37.7899 0.256774 36.4181 0.00486229 35.0344 0C30.7536 0 27.7412 2.27855 27.7144 5.53778C27.6876 7.94813 29.8649 9.29069 31.5062 10.0949C33.1944 10.9147 33.7616 11.4419 33.7526 12.1746C33.7415 13.3005 32.4083 13.7942 31.1623 13.8143C28.9851 13.8478 27.7234 13.2268 26.714 12.7577L25.9302 16.4257C26.9418 16.8903 28.8086 17.2969 30.7447 17.3148C35.2934 17.3148 38.2701 15.0675 38.2857 11.5871ZM49.5872 17.0534H53.5933L50.0986 0.308276H46.4006C46.0055 0.304613 45.6184 0.419787 45.2895 0.638863C44.9606 0.857939 44.7051 1.17081 44.5561 1.53691L38.0602 17.0534H42.6067L43.5111 14.5515H49.0669L49.5872 17.0534ZM44.7571 11.1202L47.0348 4.83187L48.3479 11.1202H44.7571ZM26.5354 0.308276L22.9558 17.0534H18.6237L22.2077 0.308276H26.5354Z" fill="white"/>
</svg>
